<svg width="161" height="26" viewBox="0 0 161 26" fill="none" xmlns="http://www.w3.org/2000/svg">
<path d="M159.659 9.05041H157.046L156.719 6.16065C156.705 6.03874 156.647 5.92617 156.556 5.84443C156.464 5.76268 156.346 5.71749 156.223 5.71748L153.314 5.71661C153.266 5.71659 153.219 5.72602 153.174 5.74435C153.13 5.76269 153.09 5.78957 153.056 5.82346C153.022 5.85736 152.995 5.8976 152.977 5.94188C152.959 5.98617 152.949 6.03364 152.949 6.08157V9.05041L152.975 12.1548V17.5126C152.975 18.1928 153.051 18.8096 153.204 19.3622C153.357 19.9151 153.607 20.3911 153.955 20.7907C154.302 21.1911 154.765 21.4971 155.341 21.7093C155.917 21.9216 156.63 22.0282 157.479 22.0282C157.92 22.0282 158.361 21.9899 158.802 21.9136C159.117 21.8593 159.393 21.7982 159.631 21.7307C159.707 21.7083 159.775 21.6612 159.822 21.5966C159.869 21.5321 159.894 21.4537 159.892 21.3738L159.854 19.0708C159.85 18.8418 159.639 18.6783 159.414 18.7215C159.154 18.7703 158.889 18.7954 158.624 18.7964C158.03 18.7964 157.619 18.6478 157.39 18.3495C157.161 18.0514 157.046 17.6045 157.046 17.0085V12.1548H159.659C159.756 12.1548 159.848 12.1163 159.917 12.0479C159.985 11.9796 160.024 11.8868 160.024 11.7901V9.41508C160.024 9.31837 159.985 9.22564 159.917 9.15726C159.848 9.08888 159.756 9.05045 159.659 9.05041H159.659ZM46.3372 10.2132C45.9724 9.72968 45.4932 9.33527 44.8994 9.02981C44.3223 8.73334 43.6253 8.58199 42.8089 8.57343L42.8114 8.57198C42.7983 8.57198 42.786 8.57256 42.7731 8.5727C42.7608 8.5727 42.7489 8.57183 42.7364 8.57183C42.6912 8.57183 42.6471 8.57517 42.6024 8.57633C41.6602 8.59926 40.8546 8.77441 40.1889 9.10614C39.5809 9.40942 39.0897 9.73766 38.7131 10.09L38.4673 9.28216C38.4361 9.17972 38.3729 9.09002 38.2868 9.02627C38.2008 8.96252 38.0966 8.9281 37.9895 8.92808H35.2126C35.1647 8.92806 35.1172 8.93749 35.073 8.95581C35.0287 8.97414 34.9884 9.001 34.9546 9.03488C34.9207 9.06876 34.8938 9.10898 34.8754 9.15325C34.8571 9.19752 34.8477 9.24498 34.8477 9.29289V21.2359C34.8477 21.2838 34.8571 21.3313 34.8754 21.3755C34.8938 21.4198 34.9207 21.46 34.9546 21.4939C34.9884 21.5278 35.0287 21.5547 35.073 21.573C35.1172 21.5913 35.1647 21.6007 35.2126 21.6007H38.6817C38.7296 21.6007 38.7771 21.5913 38.8214 21.5729C38.8656 21.5546 38.9059 21.5277 38.9398 21.4938C38.9737 21.4599 39.0005 21.4196 39.0189 21.3753C39.0372 21.331 39.0466 21.2835 39.0466 21.2356V14.7299C39.0466 14.3736 39.0931 14.0301 39.1865 13.6994C39.2795 13.3685 39.4197 13.0758 39.6066 12.8214C39.7895 12.5699 40.0292 12.365 40.3062 12.2234C40.5863 12.0795 40.9128 12.0072 41.286 12.0072C41.6589 12.0072 41.9684 12.0795 42.2147 12.2234C42.4554 12.3627 42.6534 12.5651 42.7875 12.8087C42.923 13.0549 43.0204 13.3392 43.0797 13.6611C43.1394 13.9836 43.169 14.3228 43.169 14.6792V21.2359C43.169 21.2838 43.1784 21.3313 43.1967 21.3755C43.2151 21.4198 43.242 21.46 43.2759 21.4939C43.3097 21.5278 43.35 21.5547 43.3943 21.573C43.4385 21.5913 43.486 21.6007 43.5339 21.6007H47.003C47.0509 21.6007 47.0983 21.5913 47.1426 21.573C47.1869 21.5547 47.2271 21.5278 47.261 21.4939C47.2949 21.46 47.3218 21.4198 47.3401 21.3755C47.3585 21.3313 47.3679 21.2838 47.3679 21.2359V13.7629C47.3679 13.1356 47.2872 12.5077 47.126 11.8798C46.9647 11.2525 46.7017 10.6966 46.3372 10.213V10.2132ZM77.6522 18.2161C77.2785 18.0296 76.965 17.7835 76.7107 17.4781C76.4561 17.1729 76.2652 16.8207 76.1378 16.4221C76.0122 16.0314 75.948 15.6237 75.9474 15.2133C75.9474 14.8061 76.0111 14.4079 76.1378 14.0173C76.2654 13.6274 76.4561 13.2839 76.7107 12.9869C76.965 12.6901 77.2785 12.4485 77.6522 12.2616C78.0249 12.0751 78.4579 11.9817 78.9501 11.9817C79.425 11.9817 79.8488 12.0751 80.2224 12.2616C80.5954 12.4485 80.9132 12.694 81.1767 12.9995C81.4394 13.3049 81.6429 13.6528 81.7876 14.0428C81.9314 14.4332 82.0038 14.8318 82.0038 15.2389C82.0038 15.6459 81.9314 16.0448 81.7876 16.4349C81.6429 16.8252 81.4394 17.1729 81.1767 17.4782C80.9132 17.7835 80.5952 18.0296 80.2224 18.2161C79.8488 18.403 79.425 18.4962 78.9501 18.4962C78.4579 18.4962 78.0249 18.403 77.6522 18.2161ZM85.6341 3.97266H82.1903C82.0936 3.97266 82.0008 4.01108 81.9324 4.07946C81.8641 4.14785 81.8256 4.24061 81.8256 4.33732V10.2768H81.7748C81.4183 9.85288 80.9178 9.46268 80.2734 9.10614C79.6285 8.75003 78.8397 8.57183 77.9069 8.57183C76.9909 8.57183 76.1638 8.75003 75.4255 9.10614C74.6877 9.46253 74.0597 9.9459 73.5425 10.5567C73.0247 11.1673 72.6265 11.8757 72.3465 12.6814C72.0666 13.4874 71.9265 14.3315 71.9265 15.2135C71.9265 16.0957 72.0624 16.9438 72.3337 17.7581C72.6051 18.5722 72.9993 19.2891 73.5171 19.9084C74.0344 20.5278 74.6662 21.024 75.4128 21.397C76.1593 21.7699 77.0073 21.9568 77.9575 21.9568C78.0722 21.9568 78.1858 21.9532 78.2988 21.9467C79.2899 21.9253 80.1365 21.7428 80.835 21.3945C81.4366 21.0944 81.9274 20.7708 82.3115 20.4246L82.5809 21.2552C82.6135 21.3556 82.677 21.4431 82.7623 21.5051C82.8477 21.5672 82.9505 21.6006 83.056 21.6006H85.6341C85.7308 21.6006 85.8236 21.5621 85.892 21.4938C85.9604 21.4254 85.9989 21.3326 85.9989 21.2359V4.33732C85.9989 4.28942 85.9895 4.24199 85.9711 4.19774C85.9528 4.15348 85.9259 4.11328 85.892 4.07941C85.8582 4.04555 85.818 4.01869 85.7737 4.00037C85.7294 3.98206 85.682 3.97264 85.6341 3.97266ZM108.483 8.92808H104.947C104.783 8.92808 104.639 9.03764 104.595 9.19581L102.455 16.9438H102.405L100.14 9.19045C100.118 9.11474 100.072 9.04825 100.009 9.00094C99.9456 8.95364 99.8688 8.92808 99.7899 8.92808H96.1406C96.0612 8.92804 95.9839 8.95396 95.9205 9.0019C95.8572 9.04984 95.8112 9.11717 95.7896 9.19364L93.5999 16.9438H93.5235L91.4083 9.19669C91.3872 9.1195 91.3413 9.05139 91.2777 9.00285C91.2142 8.95431 91.1364 8.92803 91.0564 8.92808H87.3429C87.2848 8.92809 87.2275 8.94199 87.1759 8.96862C87.1242 8.99525 87.0797 9.03384 87.0459 9.08117C87.0122 9.12851 86.9903 9.18321 86.9819 9.24074C86.9736 9.29826 86.9792 9.35694 86.9981 9.41189L91.1231 21.3549C91.1478 21.4266 91.1944 21.4889 91.2562 21.533C91.318 21.577 91.392 21.6007 91.4679 21.6007H95.1376C95.2156 21.6007 95.2914 21.5757 95.3542 21.5295C95.4169 21.4832 95.4632 21.4181 95.4863 21.3437L97.8496 13.7121H97.9007L100.314 21.3457C100.337 21.4197 100.383 21.4843 100.446 21.5301C100.508 21.576 100.584 21.6007 100.662 21.6007H104.334C104.489 21.6007 104.627 21.5023 104.678 21.3555L108.827 9.41247C108.846 9.35752 108.852 9.29881 108.843 9.24123C108.835 9.18365 108.813 9.12886 108.78 9.08146C108.746 9.03405 108.701 8.99539 108.65 8.96871C108.598 8.94203 108.541 8.9281 108.483 8.92808ZM129.492 3.97266H125.972C125.924 3.97264 125.877 3.98206 125.832 4.00037C125.788 4.01869 125.748 4.04555 125.714 4.07941C125.68 4.11328 125.653 4.15348 125.635 4.19774C125.617 4.24199 125.607 4.28942 125.607 4.33732V21.2359C125.607 21.3326 125.646 21.4254 125.714 21.4939C125.782 21.5623 125.875 21.6007 125.972 21.6007H129.492C129.589 21.6007 129.682 21.5623 129.75 21.4939C129.819 21.4254 129.857 21.3326 129.857 21.2359V4.33732C129.857 4.28942 129.848 4.24199 129.829 4.19774C129.811 4.15348 129.784 4.11328 129.75 4.07941C129.716 4.04555 129.676 4.01869 129.632 4.00037C129.588 3.98206 129.54 3.97264 129.492 3.97266ZM136.463 3.97266H132.943C132.846 3.97266 132.753 4.01107 132.685 4.07945C132.616 4.14783 132.578 4.24058 132.578 4.33732V21.2359C132.578 21.3327 132.616 21.4255 132.685 21.4939C132.753 21.5623 132.846 21.6007 132.943 21.6007H136.463C136.511 21.6007 136.558 21.5913 136.602 21.573C136.647 21.5546 136.687 21.5278 136.721 21.4939C136.755 21.46 136.782 21.4198 136.8 21.3755C136.818 21.3313 136.828 21.2838 136.828 21.2359V4.33732C136.828 4.28942 136.818 4.24199 136.8 4.19774C136.781 4.15348 136.755 4.11328 136.721 4.07941C136.687 4.04555 136.647 4.01869 136.602 4.00037C136.558 3.98206 136.511 3.97264 136.463 3.97266ZM113.641 17.4781C113.386 17.1729 113.195 16.8207 113.068 16.4221C112.942 16.0314 112.878 15.6237 112.877 15.2133C112.877 14.8061 112.941 14.4079 113.068 14.0173C113.195 13.6274 113.386 13.2839 113.641 12.9869C113.895 12.6901 114.209 12.4485 114.582 12.2616C114.955 12.0751 115.388 11.9817 115.88 11.9817C116.355 11.9817 116.779 12.0751 117.152 12.2616C117.525 12.4485 117.843 12.694 118.107 12.9995C118.369 13.3049 118.573 13.6528 118.717 14.0428C118.862 14.4332 118.934 14.8318 118.934 15.2389C118.934 15.6459 118.862 16.0448 118.717 16.4349C118.573 16.8252 118.369 17.1729 118.107 17.4782C117.843 17.7835 117.525 18.0296 117.152 18.2161C116.779 18.403 116.355 18.4962 115.88 18.4962C115.388 18.4962 114.955 18.403 114.582 18.2161C114.209 18.0296 113.895 17.7835 113.641 17.4781ZM122.564 8.49478L119.656 8.4942C119.548 8.49421 119.443 8.52907 119.357 8.59356C119.271 8.65805 119.207 8.74872 119.177 8.85204L118.837 10.0006C118.475 9.68209 118.016 9.38359 117.46 9.10614C116.746 8.75003 115.871 8.57183 114.838 8.57183H114.837C113.921 8.57183 113.094 8.75003 112.355 9.10614C111.618 9.46253 110.99 9.9459 110.472 10.5567C109.955 11.1673 109.557 11.8757 109.277 12.6814C108.996 13.4874 108.857 14.3315 108.857 15.2135C108.857 16.0957 108.992 16.9438 109.264 17.7581C109.535 18.5722 109.929 19.2891 110.447 19.9084C110.965 20.5278 111.596 21.024 112.343 21.397C113.089 21.7699 113.937 21.9568 114.888 21.9568C115.106 21.9568 115.322 21.9448 115.535 21.9216C116.312 21.857 116.99 21.6823 117.567 21.3945C118.251 21.0535 118.792 20.682 119.195 20.2815L119.511 21.2551C119.543 21.3554 119.607 21.4428 119.692 21.5048C119.778 21.5668 119.88 21.6001 119.986 21.6001L122.564 21.6007C122.612 21.6007 122.659 21.5913 122.704 21.573C122.748 21.5547 122.788 21.5278 122.822 21.4939C122.856 21.46 122.883 21.4198 122.901 21.3755C122.919 21.3313 122.929 21.2838 122.929 21.2359V8.85959C122.929 8.76286 122.89 8.67009 122.822 8.60168C122.754 8.53327 122.661 8.49482 122.564 8.49478ZM71.4796 8.60753L71.449 8.60158L71.4964 8.57183C71.3909 8.57183 71.2883 8.57503 71.1865 8.57865C71.1023 8.5743 71.0171 8.57183 70.9308 8.57183C70.3814 8.57183 69.8793 8.67573 69.4225 8.87889C69.2347 8.9423 69.0513 9.01821 68.8737 9.10614C68.2008 9.44192 67.6713 9.80819 67.2818 10.2041L67.026 9.3061C66.9962 9.20164 66.9332 9.10973 66.8466 9.04429C66.7599 8.97885 66.6542 8.94345 66.5456 8.94347L63.7885 8.94303C63.6918 8.94307 63.599 8.98152 63.5306 9.04992C63.4622 9.11833 63.4237 9.2111 63.4237 9.30784V21.2359C63.4237 21.3327 63.4622 21.4255 63.5306 21.4939C63.5991 21.5623 63.6919 21.6007 63.7886 21.6007H67.2324C67.3292 21.6007 67.4219 21.5622 67.4903 21.4938C67.5587 21.4254 67.5971 21.3326 67.5971 21.2359V15.1038C67.5971 14.8501 67.6483 14.5541 67.7499 14.2158C67.8518 13.8776 68.0172 13.5646 68.2462 13.2768C68.4752 12.9892 68.7806 12.7438 69.1621 12.5406C69.5439 12.3379 70.0145 12.2362 70.5744 12.2362C70.7439 12.2362 70.9183 12.2449 71.0962 12.2616L71.2639 12.2825C71.3116 12.2872 71.3598 12.2824 71.4056 12.2685C71.4515 12.2546 71.4941 12.2318 71.5311 12.2013C71.5681 12.1709 71.5988 12.1335 71.6214 12.0912C71.6439 12.049 71.6579 12.0027 71.6626 11.955L71.8025 9.00993C71.813 8.91376 71.7849 8.81735 71.7243 8.7419C71.6638 8.66644 71.5757 8.61811 71.4796 8.60753ZM52.7543 13.8139C52.7712 13.4917 52.8565 13.1819 53.0089 12.885C53.1609 12.5894 53.3683 12.3259 53.6199 12.1088C53.8746 11.8887 54.1709 11.7144 54.5103 11.5873C54.8499 11.46 55.2228 11.3964 55.63 11.3964C56.4612 11.3964 57.0846 11.6343 57.5002 12.1089C57.916 12.584 58.1241 13.1523 58.1241 13.8139H52.7543ZM60.1852 10.3529C59.6251 9.75957 58.9548 9.30581 58.1748 8.99179C57.3941 8.67791 56.5374 8.52104 55.6046 8.52104C54.6379 8.52104 53.7383 8.68241 52.9071 9.00427C52.0756 9.32685 51.355 9.78062 50.7439 10.3659C50.1333 10.9511 49.6498 11.6636 49.2938 12.5034C48.9373 13.3431 48.7593 14.2807 48.7593 15.3152C48.7593 16.3841 48.9415 17.3344 49.3063 18.1652C49.6713 18.9967 50.1719 19.6964 50.8078 20.2647C51.4438 20.8332 52.1856 21.2656 53.0344 21.5625C53.8827 21.8592 54.7818 22.0077 55.732 22.0077C57.0212 22.0077 58.1534 21.7743 59.1288 21.3079C59.7255 21.0224 60.2508 20.6628 60.7044 20.2282C60.7454 20.1888 60.7782 20.1416 60.8007 20.0894C60.8232 20.0372 60.8352 19.981 60.8357 19.9241C60.8363 19.8672 60.8256 19.8108 60.8041 19.7581C60.7826 19.7054 60.7509 19.6576 60.7107 19.6173L58.908 17.8059C58.7431 17.6402 58.4712 17.6329 58.3082 17.8008C58.0688 18.0476 57.787 18.2582 57.4622 18.4323C57.0039 18.6786 56.4444 18.8014 55.7831 18.8014C55.4094 18.8014 55.0488 18.7421 54.7013 18.6233C54.3536 18.5049 54.0397 18.3395 53.7598 18.127C53.4797 17.9152 53.2505 17.665 53.0727 17.3764C52.8948 17.0882 52.7883 16.7657 52.7543 16.4095H61.9412C61.9582 16.2488 61.9665 16.0874 61.9662 15.9258V15.4171C61.9662 14.3316 61.8093 13.3646 61.4956 12.5163C61.1813 11.6679 60.7451 10.947 60.1852 10.3531V10.3529ZM142.404 13.8139C142.421 13.4917 142.506 13.1819 142.658 12.885C142.81 12.5894 143.018 12.3259 143.269 12.1088C143.524 11.8887 143.82 11.7144 144.16 11.5873C144.499 11.46 144.873 11.3964 145.28 11.3964C146.111 11.3964 146.734 11.6343 147.15 12.1089C147.565 12.584 147.774 13.1523 147.774 13.8139H142.404ZM149.835 10.3529C149.275 9.75957 148.604 9.30581 147.824 8.99179C147.044 8.67791 146.187 8.52104 145.254 8.52104C144.287 8.52104 143.388 8.68241 142.557 9.00427C141.725 9.32685 141.004 9.78062 140.394 10.3659C139.783 10.9511 139.299 11.6636 138.943 12.5034C138.587 13.3431 138.409 14.2807 138.409 15.3152C138.409 16.3841 138.591 17.3344 138.956 18.1652C139.321 18.9967 139.822 19.6964 140.457 20.2647C141.093 20.8332 141.835 21.2656 142.684 21.5625C143.532 21.8592 144.431 22.0077 145.381 22.0077C146.671 22.0077 147.803 21.7743 148.778 21.3079C149.375 21.0224 149.9 20.6628 150.354 20.2282C150.395 20.1888 150.428 20.1416 150.45 20.0894C150.473 20.0371 150.485 19.981 150.485 19.9241C150.486 19.8672 150.475 19.8108 150.454 19.7581C150.432 19.7055 150.4 19.6576 150.36 19.6173L148.558 17.8059C148.393 17.6402 148.12 17.6329 147.958 17.8008C147.718 18.0476 147.437 18.2582 147.112 18.4323C146.654 18.6786 146.094 18.8014 145.432 18.8014C145.059 18.8014 144.698 18.7421 144.351 18.6233C144.003 18.5049 143.689 18.3395 143.409 18.127C143.13 17.9152 142.9 17.665 142.722 17.3764C142.544 17.0882 142.438 16.7657 142.404 16.4095H151.591C151.608 16.2488 151.616 16.0874 151.616 15.9258V15.4171C151.616 14.3316 151.459 13.3646 151.145 12.5163C150.831 11.6679 150.395 10.947 149.835 10.3531" fill="#4A4656"/>
<path d="M8.61501 0.0515147C8.52557 0.0177818 8.43082 0.000334894 8.33523 0H0.57058C0.419253 0 0.274124 0.0601145 0.167119 0.167119C0.0601145 0.274124 0 0.419253 0 0.57058L0 8.66681L8.61501 0.0515147ZM0.167169 25.8328C0.220075 25.8859 0.282953 25.928 0.352185 25.9567C0.421418 25.9854 0.495639 26.0001 0.57058 26H8.09609C8.24738 26 8.39246 25.9399 8.49946 25.8329C8.60645 25.7259 8.66659 25.5809 8.66667 25.4296V17.3335L0.167169 25.8328Z" fill="#4A4656"/>
<path d="M17.3398 8.66797V25.9285C17.3568 25.9362 17.374 25.9433 17.3915 25.9498L26.0065 17.3346L17.3398 8.66797Z" fill="#4A4656"/>
<path d="M8.66667 17.3335V0.073862C8.64954 0.0660259 8.63271 0.0580448 8.61501 0.0515147L0 8.66681V25.4296C0 25.5872 0.0638492 25.7298 0.167169 25.833L8.66667 17.3335ZM25.9997 17.3335V0.57058C25.9997 0.49567 25.985 0.421489 25.9563 0.352273C25.9277 0.283057 25.8857 0.220162 25.8327 0.167179C25.7798 0.114196 25.7169 0.072162 25.6477 0.0434773C25.5785 0.0147927 25.5043 1.90539e-05 25.4294 0H17.9039C17.7527 -1.22247e-07 17.6077 0.0600148 17.5007 0.166862C17.3937 0.27371 17.3335 0.418653 17.3333 0.569855V8.66681L25.9997 17.3335ZM25.9997 17.3335L17.3848 25.9486C17.4735 25.9819 17.568 26 17.6646 26H25.4293C25.5806 26 25.7257 25.9399 25.8327 25.8329C25.9397 25.726 25.9998 25.5809 25.9999 25.4296L25.9997 17.3335Z" fill="#4A4656"/>
<path d="M8.66117 17.3339H8.66016H8.66117ZM17.3267 8.66699V8.66714V8.66699Z" fill="#4A4656"/>
<path d="M8.89451 0.233591C8.82665 0.166514 8.74726 0.112198 8.66016 0.0732422V17.3329L17.0923 25.765C17.1607 25.8332 17.2405 25.8872 17.3267 25.9265V8.66604L8.89451 0.233591Z" fill="#4A4656"/>
</svg>
