<svg width="118" height="26" viewBox="0 0 118 26" fill="none" xmlns="http://www.w3.org/2000/svg">
<path d="M13.3116 8.44668H18.7998L19.3425 6.15492C19.3425 6.15492 20.0662 3.01883 17.7745 1.5111C17.7745 1.5111 16.2064 0.00336437 12.0451 0.00336437C12.0451 0.00336437 7.28065 -0.177564 4.9889 2.11419C4.9889 2.11419 2.21466 4.58688 2.75745 9.04978C2.75745 9.04978 3.1193 11.1606 5.23013 12.7286L10.0549 15.9854C10.0549 15.9854 11.8642 17.2519 10.8389 19.6642C10.8389 19.6642 10.4771 21.3529 8.06468 21.172C8.06468 21.172 5.6523 21.2926 5.59199 19.1214C5.59199 19.1214 5.71261 17.674 6.07447 16.8297H0.706928C0.706928 16.8297 -1.82607 23.8256 3.42085 25.4539C3.42085 25.4539 10.8992 27.4441 14.6987 23.8256C14.6987 23.8256 18.1967 20.207 16.6889 15.0807C16.6889 15.0807 16.2668 13.6936 14.5781 12.608L9.15025 8.92916C9.15025 8.92916 7.64251 7.66266 8.90901 5.79307C8.90901 5.79307 9.33117 4.76781 11.5023 4.82812C11.5023 4.82812 14.0353 4.76781 13.6131 6.93895L13.3116 8.44668ZM22.0565 0.48584H27.6652L26.0972 7.48173C26.0972 7.48173 29.0524 6.81833 31.1632 7.42142C31.1632 7.42142 34.3596 7.9039 33.4549 12.0652L30.5601 25.1524H24.9513L27.6049 13.3317C27.6049 13.3317 28.0874 11.6431 26.5797 11.6431C26.5797 11.6431 25.6147 11.6431 25.1925 11.824L22.2374 25.1524H16.6286L22.0565 0.48584ZM42.1998 5.06935L43.2251 0.48584H37.6163L36.591 5.06935H42.1998ZM37.7369 25.2127L41.7173 7.24049H36.1086L32.0678 25.2127H37.7369ZM39.2446 25.2127L43.2251 7.3008H53.1158C53.1158 7.3008 56.3122 7.48173 55.9504 10.4972L46.2405 11.1606L55.4679 11.9446L45.8787 12.5477L55.106 13.3317L45.5168 13.9951L47.3261 14.357L44.9137 25.1524H39.2446V25.2127Z" fill="#4A4656"/>
<path d="M49.6157 14.5382L55.1642 14.8397L53.2946 25.1526H47.2637L49.6157 14.5382ZM56.3704 9.59281L57.8781 0.486091H58.9637L56.3704 9.59281ZM57.6972 9.59281L59.2049 0.425781H60.2905L57.6972 9.59281ZM59.024 9.59281L60.5317 0.486091H61.6173L59.024 9.59281ZM60.3508 9.59281L61.8586 0.486091H62.9441L60.3508 9.59281ZM61.6776 9.59281L63.1854 0.486091H64.2709L61.6776 9.59281Z" fill="#4A4656"/>
<path d="M60.1167 16.1062L58.609 25.2129H57.5234L60.1167 16.1062ZM58.7899 16.1062L57.2822 25.2129H56.1966L58.7899 16.1062ZM57.4631 16.1062L55.9553 25.2129H54.8698L57.4631 16.1062ZM56.1363 16.1062L54.6285 25.2129H53.543L56.1363 16.1062ZM64.5193 0.425781H78.2095L77.2446 4.70775H69.1631L67.8966 10.2562H74.0482L73.0229 14.7794H66.8713L65.6048 20.5088H73.6863L72.661 25.1526H58.9708L61.8054 14.7794L71.9976 13.9954L62.7703 13.2717L72.1183 12.4877L63.2528 11.8243L72.4801 11.0402L62.8306 10.3165L64.5193 0.425781ZM79.1142 0.425781H84.542L83.0343 7.05982H87.7384L86.7131 11.583H82.1296L80.3203 19.5439C80.3203 19.5439 79.8379 20.931 81.4662 20.931H84.542L83.6977 24.7908C83.6977 24.7908 81.2853 25.8764 78.3301 25.2129C78.3301 25.2129 73.626 24.7908 74.9528 19.4232L79.1142 0.425781ZM96.4229 12.7892H101.187C101.187 12.7892 102.514 9.23096 99.4987 7.66291C99.4987 7.66291 97.6894 6.57734 94.3724 6.75827C94.3724 6.75827 91.5982 6.75827 89.8492 7.90415C89.8492 7.90415 86.7734 9.65312 87.6178 13.8748C87.6178 13.8748 88.1003 15.3222 89.2461 15.9856L93.709 18.6995C93.709 18.6995 94.5534 19.5439 94.1312 20.4485C94.1312 20.4485 94.0106 21.4135 92.3219 21.4135C92.3219 21.4135 90.5729 21.6547 90.5729 20.0866C90.5729 20.0866 90.5729 19.4232 90.6936 18.5186H85.8085C85.8085 18.5186 84.7229 21.5944 85.8688 23.1624C85.8688 23.1624 86.8941 25.3939 91.9601 25.3939C91.9601 25.3939 97.3879 25.8764 98.9559 22.499C98.9559 22.499 100.765 19.1217 98.8353 16.7696C98.8353 16.7696 97.9307 15.8047 96.7245 15.2016L93.709 13.5732C93.709 13.5732 92.3822 12.9701 92.6838 11.7036C92.6838 11.7036 92.7441 10.5578 94.6137 10.4975C94.6137 10.5578 96.8451 10.3768 96.4229 12.7892ZM103.419 7.05982H109.028L106.253 19.3026C106.253 19.3026 106.012 20.6897 106.917 20.6897H108.605L111.681 6.99951H117.29L113.37 24.7305L106.917 25.3336C106.917 25.3336 103.057 25.5748 101.67 23.8258C101.67 23.8258 99.8606 22.5593 100.765 18.3377L103.419 7.05982Z" fill="#4A4656"/>
</svg>
