<svg width="124" height="34" viewBox="0 0 124 34" fill="none" xmlns="http://www.w3.org/2000/svg">
<path d="M42.776 15.04L42.512 15.112V7.72H44.792V25H42.728L42.56 23.2C42.16 23.744 41.616 24.208 40.928 24.592C40.256 24.976 39.432 25.168 38.456 25.168C37.368 25.168 36.416 24.912 35.6 24.4C34.8 23.888 34.168 23.168 33.704 22.24C33.256 21.312 33.032 20.232 33.032 19C33.032 17.768 33.256 16.688 33.704 15.76C34.168 14.832 34.8 14.112 35.6 13.6C36.416 13.088 37.368 12.832 38.456 12.832C39.496 12.832 40.376 13.048 41.096 13.48C41.832 13.896 42.392 14.416 42.776 15.04ZM35.456 19C35.456 20.232 35.776 21.224 36.416 21.976C37.056 22.728 37.912 23.104 38.984 23.104C39.64 23.104 40.232 22.944 40.76 22.624C41.288 22.304 41.712 21.84 42.032 21.232C42.352 20.608 42.512 19.864 42.512 19C42.512 18.136 42.352 17.4 42.032 16.792C41.712 16.184 41.288 15.72 40.76 15.4C40.232 15.064 39.64 14.896 38.984 14.896C37.928 14.896 37.072 15.272 36.416 16.024C35.776 16.776 35.456 17.768 35.456 19ZM52.9884 25H50.8284L47.0604 13H49.3644L51.8844 22.312L54.5724 13H56.7324L59.3244 22.264L61.8204 13H64.0524L60.3324 25H58.1484L55.5804 16.288L52.9884 25ZM71.3266 25.168C70.1746 25.168 69.1506 24.904 68.2546 24.376C67.3746 23.832 66.6786 23.088 66.1666 22.144C65.6706 21.2 65.4226 20.12 65.4226 18.904C65.4226 17.736 65.6706 16.696 66.1666 15.784C66.6626 14.872 67.3426 14.152 68.2066 13.624C69.0866 13.096 70.0786 12.832 71.1826 12.832C72.3026 12.832 73.2946 13.08 74.1586 13.576C75.0226 14.056 75.6946 14.736 76.1746 15.616C76.6546 16.48 76.8866 17.48 76.8706 18.616C76.8706 18.808 76.8626 19.008 76.8466 19.216C76.8306 19.408 76.8066 19.624 76.7746 19.864H67.8946C67.9426 20.504 68.1186 21.072 68.4226 21.568C68.7426 22.048 69.1426 22.424 69.6226 22.696C70.1186 22.968 70.6786 23.104 71.3026 23.104C72.1026 23.104 72.7986 22.952 73.3906 22.648C73.9826 22.328 74.3986 21.904 74.6386 21.376L76.6066 22.072C76.1266 23.048 75.4226 23.808 74.4946 24.352C73.5826 24.896 72.5266 25.168 71.3266 25.168ZM74.3986 17.92C74.3986 17.344 74.2546 16.824 73.9666 16.36C73.6786 15.896 73.2866 15.536 72.7906 15.28C72.3106 15.008 71.7666 14.872 71.1586 14.872C70.6146 14.872 70.1106 15.008 69.6466 15.28C69.1986 15.536 68.8146 15.896 68.4946 16.36C68.1906 16.808 67.9986 17.328 67.9186 17.92H74.3986ZM79.6421 7.72H81.8981V25H79.6421V7.72ZM85.3374 7.72H87.5934V25H85.3374V7.72ZM91.3927 13H93.6727V25H91.3927V13ZM92.5447 10.888C92.1127 10.888 91.7527 10.744 91.4647 10.456C91.1767 10.168 91.0327 9.816 91.0327 9.4C91.0327 8.968 91.1767 8.608 91.4647 8.32C91.7527 8.016 92.1127 7.864 92.5447 7.864C92.9607 7.864 93.3127 8.016 93.6007 8.32C93.9047 8.608 94.0567 8.968 94.0567 9.4C94.0567 9.816 93.9047 10.168 93.6007 10.456C93.3127 10.744 92.9607 10.888 92.5447 10.888ZM97.4546 13H99.5186L99.6626 14.392C100.047 13.896 100.535 13.512 101.127 13.24C101.719 12.968 102.375 12.832 103.095 12.832C104.023 12.832 104.823 13.032 105.495 13.432C106.183 13.816 106.711 14.392 107.079 15.16C107.463 15.928 107.655 16.888 107.655 18.04V25H105.399V18.328C105.399 17.208 105.159 16.36 104.679 15.784C104.215 15.192 103.535 14.896 102.639 14.896C101.711 14.896 100.991 15.2 100.479 15.808C99.9666 16.4 99.7106 17.28 99.7106 18.448V25H97.4546V13ZM119.908 13H121.972V23.032C121.972 24.44 121.636 25.648 120.964 26.656C120.292 27.664 119.324 28.44 118.06 28.984C116.812 29.528 115.3 29.8 113.524 29.8L113.164 27.808C115.308 27.76 116.932 27.328 118.036 26.512C119.14 25.712 119.692 24.552 119.692 23.032V22.912L119.956 22.936C119.572 23.544 119.02 24.072 118.3 24.52C117.596 24.952 116.716 25.168 115.66 25.168C114.588 25.168 113.636 24.912 112.804 24.4C111.988 23.888 111.348 23.168 110.884 22.24C110.436 21.312 110.212 20.232 110.212 19C110.212 17.768 110.436 16.688 110.884 15.76C111.348 14.832 111.988 14.112 112.804 13.6C113.636 13.088 114.588 12.832 115.66 12.832C116.316 12.832 116.9 12.92 117.412 13.096C117.94 13.272 118.396 13.512 118.78 13.816C119.164 14.104 119.484 14.432 119.74 14.8L119.908 13ZM112.636 19C112.636 20.232 112.956 21.224 113.596 21.976C114.252 22.728 115.124 23.104 116.212 23.104C116.852 23.104 117.436 22.944 117.964 22.624C118.492 22.288 118.908 21.816 119.212 21.208C119.532 20.584 119.692 19.848 119.692 19C119.692 18.136 119.532 17.4 119.212 16.792C118.908 16.184 118.484 15.72 117.94 15.4C117.412 15.064 116.836 14.896 116.212 14.896C115.124 14.896 114.252 15.272 113.596 16.024C112.956 16.776 112.636 17.768 112.636 19Z" fill="#191623"/>
<path d="M22.6519 13.3276L25.9664 16.5294C25.9822 16.5446 25.993 16.5641 25.9976 16.5855C26.0022 16.6069 26.0002 16.6292 25.992 16.6495C25.9838 16.6697 25.9697 16.6871 25.9515 16.6993C25.9334 16.7115 25.912 16.718 25.8901 16.718H22.6519V29H16.5099V21.1053H9.4905V29H3.34849V16.7193H0.109901C0.0880179 16.7193 0.0666216 16.7128 0.0484638 16.7006C0.030306 16.6884 0.016217 16.6711 0.0080085 16.6508C-0.000200029 16.6305 -0.00215272 16.6082 0.00240154 16.5868C0.0069558 16.5654 0.0178087 16.5459 0.0335648 16.5307L13.0002 4L18.7035 9.51184V7.07018H22.6519V13.3276Z" fill="url(#paint0_linear_2_1504)"/>
<defs>
<linearGradient id="paint0_linear_2_1504" x1="-1.1003e-07" y1="17" x2="26" y2="17" gradientUnits="userSpaceOnUse">
<stop stop-color="#FD5F0E"/>
<stop offset="1" stop-color="#EF126D"/>
</linearGradient>
</defs>
</svg>
