<svg width="971" height="43" viewBox="0 0 971 43" fill="none" xmlns="http://www.w3.org/2000/svg">
<rect opacity="0.7" y="3" width="970" height="4" rx="2" fill="white"/>
<rect y="3" width="470" height="4" rx="2" fill="white"/>
<circle cx="470" cy="5" r="5" fill="white"/>
<path d="M958.208 35L963.065 30.1429M965.35 27.8571L970.208 23L965.35 27.8571Z" stroke="white" stroke-miterlimit="10" stroke-linecap="round" stroke-linejoin="round"/>
<path d="M966.779 23H970.208V26.4286M961.636 35H958.208V31.5714" stroke="white" stroke-miterlimit="10" stroke-linecap="round" stroke-linejoin="round"/>
<path d="M944.251 29C944.256 28.4107 944.107 27.8303 943.82 27.3158C943.532 26.8012 943.116 26.3702 942.612 26.065C942.558 26.0279 942.496 26.0022 942.431 25.9896C942.366 25.9769 942.3 25.9775 942.235 25.9913C942.171 26.0051 942.109 26.0318 942.055 26.0698C942.002 26.1078 941.956 26.1564 941.921 26.2126C941.886 26.2688 941.863 26.3314 941.854 26.3967C941.844 26.4619 941.847 26.5285 941.864 26.5924C941.88 26.6564 941.91 26.7162 941.95 26.7685C941.99 26.8208 942.041 26.8643 942.099 26.8966C942.458 27.1146 942.755 27.4215 942.961 27.7878C943.168 28.1541 943.276 28.5674 943.276 28.9878C943.276 29.4081 943.168 29.8214 942.961 30.1877C942.755 30.554 942.458 30.861 942.099 31.079C942.042 31.1127 941.993 31.1572 941.954 31.2098C941.915 31.2625 941.887 31.3223 941.871 31.3859C941.855 31.4495 941.852 31.5156 941.862 31.5805C941.871 31.6453 941.894 31.7076 941.927 31.7638C941.961 31.82 942.006 31.869 942.058 31.9081C942.111 31.9471 942.171 31.9754 942.234 31.9913C942.298 32.0072 942.364 32.0104 942.429 32.0007C942.494 31.9911 942.556 31.9688 942.612 31.935C943.116 31.6298 943.532 31.1988 943.82 30.6842C944.107 30.1697 944.256 29.5893 944.251 29Z" fill="white"/>
<path d="M944.055 24.6955C944.004 24.6569 943.945 24.6289 943.883 24.613C943.821 24.597 943.756 24.5935 943.693 24.6026C943.629 24.6117 943.568 24.6332 943.513 24.6659C943.457 24.6986 943.409 24.7419 943.37 24.7933C943.332 24.8447 943.304 24.9032 943.288 24.9654C943.272 25.0277 943.268 25.0924 943.277 25.156C943.287 25.2196 943.308 25.2808 943.341 25.3361C943.374 25.3913 943.417 25.4396 943.468 25.4782C944.015 25.8882 944.459 26.42 944.764 27.0313C945.07 27.6426 945.229 28.3167 945.229 29.0002C945.229 29.6837 945.07 30.3578 944.764 30.9691C944.459 31.5804 944.015 32.1121 943.468 32.5222C943.417 32.5608 943.374 32.6091 943.341 32.6643C943.308 32.7196 943.287 32.7808 943.277 32.8444C943.268 32.908 943.272 32.9727 943.288 33.035C943.304 33.0972 943.332 33.1557 943.37 33.2071C943.409 33.2585 943.457 33.3018 943.513 33.3345C943.568 33.3672 943.629 33.3887 943.693 33.3978C943.756 33.4069 943.821 33.4034 943.883 33.3874C943.945 33.3715 944.004 33.3434 944.055 33.3049C944.724 32.8037 945.266 32.1538 945.64 31.4066C946.013 30.6594 946.208 29.8355 946.208 29.0002C946.208 28.1648 946.013 27.341 945.64 26.5938C945.266 25.8466 944.724 25.1967 944.055 24.6955Z" fill="white"/>
<path d="M933.489 27.0433C933.359 27.0433 933.235 27.0949 933.143 27.1866C933.052 27.2783 933 27.4028 933 27.5325V30.4675C933 30.5972 933.052 30.7217 933.143 30.8134C933.235 30.9051 933.359 30.9567 933.489 30.9567H936.424L940.392 34.925C940.553 35.0852 940.827 34.9717 940.827 34.7451V23.2549C940.827 23.0283 940.553 22.9148 940.393 23.075L936.424 27.0433H933.489Z" fill="white"/>
<path d="M521.875 28.3438L511 22V36L521.875 29.6562V35.475C521.875 35.7649 522.127 36 522.438 36C522.748 36 523 35.7649 523 35.475V22.525C523 22.2351 522.748 22 522.438 22C522.127 22 521.875 22.2351 521.875 22.525V28.3438Z" fill="white"/>
<circle cx="485" cy="29" r="12" fill="#191623"/>
<rect x="482" y="24" width="2" height="10" rx="1" fill="white"/>
<rect x="486" y="24" width="2" height="10" rx="1" fill="white"/>
<path d="M448.125 28.3438L459 22V36L448.125 29.6562V35.475C448.125 35.7649 447.873 36 447.562 36C447.252 36 447 35.7649 447 35.475V22.525C447 22.2351 447.252 22 447.562 22C447.873 22 448.125 22.2351 448.125 22.525V28.3438Z" fill="white"/>
<path d="M1.224 28.7C1.224 27.776 1.29 26.924 1.422 26.144C1.554 25.352 1.782 24.668 2.106 24.092C2.43 23.516 2.88 23.072 3.456 22.76C4.044 22.436 4.782 22.274 5.67 22.274C6.558 22.274 7.29 22.436 7.866 22.76C8.442 23.072 8.892 23.516 9.216 24.092C9.54 24.668 9.768 25.352 9.9 26.144C10.032 26.924 10.098 27.776 10.098 28.7C10.098 29.636 10.032 30.5 9.9 31.292C9.768 32.072 9.54 32.75 9.216 33.326C8.892 33.902 8.442 34.346 7.866 34.658C7.29 34.97 6.558 35.126 5.67 35.126C4.782 35.126 4.044 34.97 3.456 34.658C2.88 34.346 2.43 33.902 2.106 33.326C1.782 32.75 1.554 32.072 1.422 31.292C1.29 30.5 1.224 29.636 1.224 28.7ZM8.64 28.7C8.64 27.992 8.604 27.332 8.532 26.72C8.472 26.096 8.346 25.55 8.154 25.082C7.962 24.602 7.668 24.23 7.272 23.966C6.876 23.69 6.342 23.552 5.67 23.552C5.01 23.552 4.476 23.69 4.068 23.966C3.672 24.23 3.372 24.602 3.168 25.082C2.976 25.55 2.844 26.096 2.772 26.72C2.712 27.332 2.682 27.992 2.682 28.7C2.682 29.432 2.712 30.11 2.772 30.734C2.844 31.358 2.976 31.904 3.168 32.372C3.372 32.84 3.672 33.206 4.068 33.47C4.476 33.722 5.01 33.848 5.67 33.848C6.342 33.848 6.876 33.722 7.272 33.47C7.668 33.206 7.962 32.84 8.154 32.372C8.346 31.904 8.472 31.358 8.532 30.734C8.604 30.11 8.64 29.432 8.64 28.7ZM12.5443 25.802C12.5923 25.058 12.8023 24.428 13.1743 23.912C13.5463 23.384 14.0383 22.982 14.6503 22.706C15.2743 22.418 15.9883 22.274 16.7923 22.274C17.6203 22.274 18.3223 22.43 18.8983 22.742C19.4743 23.054 19.9063 23.468 20.1943 23.984C20.4943 24.5 20.6443 25.07 20.6443 25.694C20.6443 26.15 20.5483 26.576 20.3563 26.972C20.1643 27.356 19.8883 27.686 19.5283 27.962C19.1683 28.238 18.7303 28.424 18.2143 28.52V28.61C18.7303 28.718 19.1863 28.904 19.5823 29.168C19.9903 29.42 20.3083 29.756 20.5363 30.176C20.7643 30.584 20.8783 31.088 20.8783 31.688C20.8783 32.348 20.7283 32.942 20.4283 33.47C20.1283 33.986 19.6723 34.394 19.0603 34.694C18.4603 34.982 17.7103 35.126 16.8103 35.126C15.9343 35.126 15.1723 34.994 14.5243 34.73C13.8883 34.466 13.3843 34.058 13.0123 33.506C12.6403 32.942 12.4183 32.216 12.3463 31.328H13.7323C13.8163 32.156 14.0983 32.786 14.5783 33.218C15.0583 33.638 15.8023 33.848 16.8103 33.848C17.4103 33.848 17.9023 33.758 18.2863 33.578C18.6703 33.386 18.9523 33.116 19.1323 32.768C19.3243 32.42 19.4203 32.018 19.4203 31.562C19.4203 30.686 19.1023 30.08 18.4663 29.744C17.8423 29.396 16.9303 29.222 15.7303 29.222H15.3163V27.962H15.7483C16.5283 27.962 17.1703 27.884 17.6743 27.728C18.1783 27.572 18.5563 27.338 18.8083 27.026C19.0603 26.714 19.1863 26.318 19.1863 25.838C19.1863 25.178 18.9823 24.632 18.5743 24.2C18.1783 23.768 17.5663 23.552 16.7383 23.552C16.2103 23.552 15.7483 23.642 15.3523 23.822C14.9563 24.002 14.6323 24.26 14.3803 24.596C14.1403 24.92 13.9903 25.322 13.9303 25.802H12.5443ZM24.2917 35.09C24.0157 35.09 23.7817 34.994 23.5897 34.802C23.4097 34.61 23.3197 34.376 23.3197 34.1C23.3197 33.824 23.4097 33.59 23.5897 33.398C23.7817 33.206 24.0157 33.11 24.2917 33.11C24.5557 33.11 24.7837 33.206 24.9757 33.398C25.1677 33.59 25.2637 33.824 25.2637 34.1C25.2637 34.376 25.1677 34.61 24.9757 34.802C24.7837 34.994 24.5557 35.09 24.2917 35.09ZM24.2917 27.314C24.0157 27.314 23.7817 27.218 23.5897 27.026C23.4097 26.834 23.3197 26.6 23.3197 26.324C23.3197 26.048 23.4097 25.814 23.5897 25.622C23.7817 25.43 24.0157 25.334 24.2917 25.334C24.5557 25.334 24.7837 25.43 24.9757 25.622C25.1677 25.814 25.2637 26.048 25.2637 26.324C25.2637 26.6 25.1677 26.834 24.9757 27.026C24.7837 27.218 24.5557 27.314 24.2917 27.314ZM27.7142 25.802C27.7622 25.058 27.9722 24.428 28.3442 23.912C28.7162 23.384 29.2082 22.982 29.8202 22.706C30.4442 22.418 31.1582 22.274 31.9622 22.274C32.7902 22.274 33.4922 22.43 34.0682 22.742C34.6442 23.054 35.0762 23.468 35.3642 23.984C35.6642 24.5 35.8142 25.07 35.8142 25.694C35.8142 26.15 35.7182 26.576 35.5262 26.972C35.3342 27.356 35.0582 27.686 34.6982 27.962C34.3382 28.238 33.9002 28.424 33.3842 28.52V28.61C33.9002 28.718 34.3562 28.904 34.7522 29.168C35.1602 29.42 35.4782 29.756 35.7062 30.176C35.9342 30.584 36.0482 31.088 36.0482 31.688C36.0482 32.348 35.8982 32.942 35.5982 33.47C35.2982 33.986 34.8422 34.394 34.2302 34.694C33.6302 34.982 32.8802 35.126 31.9802 35.126C31.1042 35.126 30.3422 34.994 29.6942 34.73C29.0582 34.466 28.5542 34.058 28.1822 33.506C27.8102 32.942 27.5882 32.216 27.5162 31.328H28.9022C28.9862 32.156 29.2682 32.786 29.7482 33.218C30.2282 33.638 30.9722 33.848 31.9802 33.848C32.5802 33.848 33.0722 33.758 33.4562 33.578C33.8402 33.386 34.1222 33.116 34.3022 32.768C34.4942 32.42 34.5902 32.018 34.5902 31.562C34.5902 30.686 34.2722 30.08 33.6362 29.744C33.0122 29.396 32.1002 29.222 30.9002 29.222H30.4862V27.962H30.9182C31.6982 27.962 32.3402 27.884 32.8442 27.728C33.3482 27.572 33.7262 27.338 33.9782 27.026C34.2302 26.714 34.3562 26.318 34.3562 25.838C34.3562 25.178 34.1522 24.632 33.7442 24.2C33.3482 23.768 32.7362 23.552 31.9082 23.552C31.3802 23.552 30.9182 23.642 30.5222 23.822C30.1262 24.002 29.8022 24.26 29.5502 24.596C29.3102 24.92 29.1602 25.322 29.1002 25.802H27.7142ZM42.5756 22.274C43.4756 22.274 44.2556 22.472 44.9156 22.868C45.5876 23.252 46.1036 23.774 46.4636 24.434C46.8356 25.094 47.0216 25.838 47.0216 26.666C47.0216 27.29 46.9196 27.908 46.7156 28.52C46.5116 29.132 46.1696 29.762 45.6896 30.41L42.3416 35H40.7936L44.4836 29.978L46.3016 27.962C46.0616 28.826 45.5996 29.522 44.9156 30.05C44.2316 30.578 43.3976 30.842 42.4136 30.842C41.5616 30.842 40.8176 30.668 40.1816 30.32C39.5576 29.96 39.0656 29.462 38.7056 28.826C38.3576 28.19 38.1836 27.458 38.1836 26.63C38.1836 25.778 38.3696 25.028 38.7416 24.38C39.1136 23.72 39.6296 23.204 40.2896 22.832C40.9496 22.46 41.7116 22.274 42.5756 22.274ZM45.5636 26.648C45.5636 26.012 45.4436 25.466 45.2036 25.01C44.9756 24.542 44.6396 24.182 44.1956 23.93C43.7516 23.678 43.2116 23.552 42.5756 23.552C41.9396 23.552 41.3996 23.678 40.9556 23.93C40.5236 24.182 40.1936 24.542 39.9656 25.01C39.7496 25.466 39.6416 26.006 39.6416 26.63C39.6416 27.254 39.7496 27.788 39.9656 28.232C40.1936 28.664 40.5236 28.994 40.9556 29.222C41.3996 29.45 41.9396 29.564 42.5756 29.564C43.2116 29.564 43.7516 29.45 44.1956 29.222C44.6396 28.994 44.9756 28.664 45.2036 28.232C45.4436 27.8 45.5636 27.272 45.5636 26.648ZM57.3879 20.6H58.8279L54.4899 36.8H53.0859L57.3879 20.6ZM69.3509 35.126C68.4509 35.126 67.6649 34.934 66.9929 34.55C66.3329 34.154 65.8169 33.626 65.4449 32.966C65.0849 32.294 64.9049 31.55 64.9049 30.734C64.9049 30.11 65.0069 29.492 65.2109 28.88C65.4269 28.268 65.7689 27.638 66.2369 26.99L69.5849 22.4H71.1329L67.4429 27.422L65.6249 29.438C65.8769 28.574 66.3449 27.878 67.0289 27.35C67.7129 26.822 68.5409 26.558 69.5129 26.558C70.3649 26.558 71.1089 26.738 71.7449 27.098C72.3809 27.446 72.8729 27.938 73.2209 28.574C73.5689 29.198 73.7429 29.93 73.7429 30.77C73.7429 31.61 73.5569 32.36 73.1849 33.02C72.8129 33.68 72.2969 34.196 71.6369 34.568C70.9769 34.94 70.2149 35.126 69.3509 35.126ZM66.3629 30.752C66.3629 31.376 66.4769 31.922 66.7049 32.39C66.9449 32.858 67.2869 33.218 67.7309 33.47C68.1749 33.722 68.7149 33.848 69.3509 33.848C69.9869 33.848 70.5209 33.722 70.9529 33.47C71.3969 33.218 71.7269 32.864 71.9429 32.408C72.1709 31.94 72.2849 31.394 72.2849 30.77C72.2849 30.134 72.1709 29.6 71.9429 29.168C71.7269 28.736 71.3969 28.406 70.9529 28.178C70.5209 27.95 69.9869 27.836 69.3509 27.836C68.7149 27.836 68.1749 27.95 67.7309 28.178C67.2869 28.406 66.9449 28.736 66.7049 29.168C66.4769 29.6 66.3629 30.128 66.3629 30.752ZM76.8503 35.09C76.5743 35.09 76.3403 34.994 76.1483 34.802C75.9683 34.61 75.8783 34.376 75.8783 34.1C75.8783 33.824 75.9683 33.59 76.1483 33.398C76.3403 33.206 76.5743 33.11 76.8503 33.11C77.1143 33.11 77.3423 33.206 77.5343 33.398C77.7263 33.59 77.8223 33.824 77.8223 34.1C77.8223 34.376 77.7263 34.61 77.5343 34.802C77.3423 34.994 77.1143 35.09 76.8503 35.09ZM76.8503 27.314C76.5743 27.314 76.3403 27.218 76.1483 27.026C75.9683 26.834 75.8783 26.6 75.8783 26.324C75.8783 26.048 75.9683 25.814 76.1483 25.622C76.3403 25.43 76.5743 25.334 76.8503 25.334C77.1143 25.334 77.3423 25.43 77.5343 25.622C77.7263 25.814 77.8223 26.048 77.8223 26.324C77.8223 26.6 77.7263 26.834 77.5343 27.026C77.3423 27.218 77.1143 27.314 76.8503 27.314ZM88.3368 22.4V23.66H81.9648V27.854C82.2408 27.47 82.6428 27.158 83.1708 26.918C83.6988 26.678 84.2928 26.558 84.9528 26.558C85.7208 26.558 86.3688 26.684 86.8968 26.936C87.4248 27.188 87.8508 27.518 88.1748 27.926C88.5108 28.334 88.7508 28.784 88.8948 29.276C89.0508 29.756 89.1288 30.23 89.1288 30.698C89.1288 31.49 88.9608 32.222 88.6248 32.894C88.3008 33.566 87.8088 34.106 87.1488 34.514C86.5008 34.922 85.6908 35.126 84.7188 35.126C83.8788 35.126 83.1408 34.976 82.5048 34.676C81.8808 34.376 81.3768 33.962 80.9928 33.434C80.6208 32.894 80.3808 32.27 80.2728 31.562H81.6768C81.8448 32.306 82.1928 32.876 82.7208 33.272C83.2608 33.656 83.9268 33.848 84.7188 33.848C85.3908 33.848 85.9428 33.716 86.3748 33.452C86.8188 33.188 87.1428 32.822 87.3468 32.354C87.5628 31.886 87.6708 31.346 87.6708 30.734C87.6708 29.81 87.4188 29.096 86.9148 28.592C86.4108 28.088 85.6908 27.836 84.7548 27.836C84.0708 27.836 83.4768 27.986 82.9728 28.286C82.4808 28.586 82.1148 29.006 81.8748 29.546H80.5248V22.4H88.3368ZM91.5053 25.802C91.5533 25.058 91.7633 24.428 92.1353 23.912C92.5073 23.384 92.9993 22.982 93.6113 22.706C94.2353 22.418 94.9493 22.274 95.7533 22.274C96.5813 22.274 97.2833 22.43 97.8593 22.742C98.4353 23.054 98.8673 23.468 99.1553 23.984C99.4553 24.5 99.6053 25.07 99.6053 25.694C99.6053 26.15 99.5093 26.576 99.3173 26.972C99.1253 27.356 98.8493 27.686 98.4893 27.962C98.1293 28.238 97.6913 28.424 97.1753 28.52V28.61C97.6913 28.718 98.1473 28.904 98.5433 29.168C98.9513 29.42 99.2693 29.756 99.4973 30.176C99.7253 30.584 99.8393 31.088 99.8393 31.688C99.8393 32.348 99.6893 32.942 99.3893 33.47C99.0893 33.986 98.6333 34.394 98.0213 34.694C97.4213 34.982 96.6713 35.126 95.7713 35.126C94.8953 35.126 94.1333 34.994 93.4853 34.73C92.8493 34.466 92.3453 34.058 91.9733 33.506C91.6013 32.942 91.3793 32.216 91.3073 31.328H92.6933C92.7773 32.156 93.0593 32.786 93.5393 33.218C94.0193 33.638 94.7633 33.848 95.7713 33.848C96.3713 33.848 96.8633 33.758 97.2473 33.578C97.6313 33.386 97.9133 33.116 98.0933 32.768C98.2853 32.42 98.3813 32.018 98.3813 31.562C98.3813 30.686 98.0633 30.08 97.4273 29.744C96.8033 29.396 95.8913 29.222 94.6913 29.222H94.2773V27.962H94.7093C95.4893 27.962 96.1313 27.884 96.6353 27.728C97.1393 27.572 97.5173 27.338 97.7693 27.026C98.0213 26.714 98.1473 26.318 98.1473 25.838C98.1473 25.178 97.9433 24.632 97.5353 24.2C97.1393 23.768 96.5273 23.552 95.6993 23.552C95.1713 23.552 94.7093 23.642 94.3133 23.822C93.9173 24.002 93.5933 24.26 93.3413 24.596C93.1013 24.92 92.9513 25.322 92.8913 25.802H91.5053Z" fill="white"/>
</svg>
